<?xml version="1.0" standalone="no"?>
<!DOCTYPE svg PUBLIC "-//W3C//DTD SVG 20010904//EN"
 "http://www.w3.org/TR/2001/REC-SVG-20010904/DTD/svg10.dtd">
<svg version="1.0" xmlns="http://www.w3.org/2000/svg"
 width="670.000000pt" height="360.000000pt" viewBox="0 0 670.000000 360.000000"
 preserveAspectRatio="xMidYMid meet">
<metadata>
Created by potrace 1.16, written by Peter Selinger 2001-2019
</metadata>
<g transform="translate(0.000000,360.000000) scale(0.100000,-0.100000)"
fill="#000000" stroke="none">
<path d="M3285 3576 c-27 -12 -65 -40 -83 -61 -31 -34 -33 -42 -30 -91 2 -32
-1 -54 -7 -54 -27 0 -134 -61 -159 -91 -25 -29 -27 -39 -22 -78 3 -24 16 -63
29 -85 l23 -41 -176 -1 c-203 -1 -279 -16 -418 -85 -139 -68 -265 -208 -302
-335 l-12 -40 -107 -12 c-434 -49 -674 -250 -675 -568 l-1 -92 -35 31 c-19 16
-59 42 -90 56 -47 22 -69 26 -145 26 -79 0 -97 -4 -150 -29 -168 -82 -283
-292 -273 -499 2 -37 1 -67 -2 -67 -3 0 -13 7 -24 15 -10 8 -43 19 -72 25 -43
9 -65 8 -114 -4 -117 -30 -212 -112 -274 -236 -56 -111 -70 -179 -70 -325 0
-114 4 -139 26 -205 48 -137 112 -226 220 -306 l57 -41 -72 -28 c-92 -36 -218
-98 -257 -127 -88 -64 -93 -184 -10 -218 47 -20 111 -7 271 53 615 234 1404
385 2339 449 246 17 1116 17 1360 0 946 -65 1713 -212 2337 -448 165 -62 223
-73 276 -50 40 16 57 46 57 99 0 77 -76 138 -267 217 -62 26 -116 49 -119 52
-3 4 15 20 39 37 65 44 153 146 187 216 93 188 92 428 -2 624 -40 85 -132 177
-213 216 -78 37 -169 39 -232 7 l-43 -22 0 78 c0 93 -28 212 -67 285 -39 72
-136 168 -206 202 -116 56 -249 43 -360 -35 -32 -22 -59 -40 -61 -40 -1 0 -1
24 2 54 6 75 -14 180 -49 252 -90 189 -303 306 -627 346 l-103 13 -30 70 c-76
182 -228 305 -455 367 -66 18 -108 21 -255 22 l-177 1 18 25 c23 33 40 86 40
123 0 43 -68 106 -141 131 l-56 19 8 33 c18 61 -28 129 -116 170 -61 29 -67
29 -130 0z m120 -458 c17 -25 45 -55 63 -65 41 -23 40 -53 -3 -65 -31 -8 -82
-49 -104 -83 -10 -17 -13 -17 -18 -5 -11 27 -72 78 -108 90 -46 15 -44 34 5
66 22 15 40 32 40 38 0 20 62 77 79 74 9 -2 30 -24 46 -50z m-406 -213 c149
-35 252 -134 268 -257 5 -32 0 -47 -31 -93 -34 -52 -37 -54 -68 -47 -18 4 -80
7 -138 7 -93 0 -112 -3 -163 -28 -142 -66 -214 -169 -238 -344 -11 -82 1 -198
31 -294 21 -69 24 -69 -91 21 -240 189 -351 436 -294 655 24 89 62 153 140
230 116 115 237 163 415 164 61 0 132 -6 169 -14z m1026 0 c96 -25 181 -72
255 -141 187 -176 212 -420 69 -661 -56 -93 -295 -321 -315 -300 -3 3 1 27 10
54 92 280 -7 557 -228 639 -54 20 -216 27 -283 12 -31 -7 -35 -5 -68 45 -43
64 -44 95 -4 175 45 92 122 149 236 176 79 20 254 20 328 1z m-1957 -481 c19
-6 22 -13 22 -58 0 -268 335 -682 950 -1171 65 -52 120 -101 123 -109 4 -9 0
-22 -8 -30 -16 -16 -20 -15 -250 55 -436 134 -825 310 -1060 479 -115 83 -234
211 -276 295 -30 62 -34 79 -34 150 0 69 4 89 32 147 56 119 151 199 274 232
55 15 186 21 227 10z m2785 -9 c129 -33 225 -111 279 -225 76 -159 35 -312
-125 -473 -202 -202 -591 -404 -1102 -571 -222 -72 -337 -104 -352 -99 -7 3
-13 15 -13 28 0 17 33 49 138 132 403 322 700 629 840 868 55 94 92 208 92
284 0 48 3 60 18 64 40 11 172 6 225 -8z m-1628 -189 l126 -117 117 109 c65
60 129 115 142 122 51 27 187 -15 237 -74 39 -46 73 -126 73 -172 0 -107 -78
-244 -224 -389 -94 -94 -294 -251 -333 -261 -45 -12 -300 186 -423 329 -79 91
-147 217 -156 287 -20 152 120 297 273 286 38 -3 54 -14 168 -120z m-2099
-353 c68 -23 144 -101 174 -178 19 -50 23 -79 23 -175 0 -231 -85 -425 -217
-492 -57 -29 -143 -34 -221 -13 -36 9 -67 21 -70 25 -3 4 2 24 10 44 8 19 15
47 15 61 0 24 2 25 63 25 156 0 265 37 297 101 26 51 25 75 -6 106 -27 27 -25
27 -187 7 -127 -16 -194 89 -169 266 28 195 132 276 288 223z m4637 -16 c50
-38 75 -84 93 -169 30 -138 6 -237 -67 -286 -36 -25 -40 -25 -189 -6 -57 7
-98 -8 -110 -42 -24 -62 39 -141 129 -164 25 -7 90 -14 144 -17 94 -6 97 -7
97 -30 0 -13 7 -40 15 -59 8 -20 13 -40 10 -44 -3 -4 -34 -16 -70 -25 -187
-51 -326 38 -399 257 -51 150 -52 342 -4 445 29 62 105 137 160 157 65 23 148
16 191 -17z m-4033 -402 c126 -84 279 -169 478 -266 89 -44 162 -81 162 -83 0
-1 -21 1 -47 5 -175 29 -501 -5 -825 -87 -75 -19 -139 -34 -142 -34 -3 0 10
22 29 49 45 63 80 141 104 238 23 89 41 223 41 300 l0 52 53 -56 c28 -30 95
-84 147 -118z m3470 -130 c19 -94 65 -210 109 -275 22 -33 38 -60 37 -60 -2 0
-65 16 -142 35 -289 71 -523 101 -733 92 l-135 -5 160 78 c301 148 528 286
619 378 l50 51 11 -117 c6 -64 17 -144 24 -177z m-4660 3 c58 -30 99 -95 107
-169 8 -76 -17 -164 -78 -286 -60 -119 -59 -131 13 -183 61 -44 75 -38 125 55
23 44 44 84 46 89 2 5 28 1 57 -9 30 -10 79 -23 109 -29 l54 -11 -74 -51
c-153 -106 -284 -158 -400 -158 -67 -1 -81 2 -125 29 -185 114 -200 464 -28
664 36 41 101 80 134 81 9 0 36 -10 60 -22z m5735 3 c89 -40 175 -183 196
-324 26 -175 -40 -349 -155 -410 -53 -28 -166 -29 -246 -3 -117 39 -377 196
-324 196 17 0 121 26 184 46 11 3 28 -21 60 -81 24 -47 52 -88 62 -91 36 -11
128 63 128 103 0 12 -14 45 -30 72 -73 119 -111 265 -91 349 17 67 53 116 103
141 52 25 62 26 113 2z m-3957 -422 c120 -13 274 -43 356 -70 65 -21 126 -62
114 -74 -4 -4 -103 -14 -220 -21 -593 -38 -1168 -112 -1528 -198 -57 -14 -106
-23 -108 -22 -6 7 165 111 273 168 212 110 476 195 670 217 115 12 330 13 443
0z m2524 -4 c215 -28 399 -87 627 -201 138 -69 308 -171 299 -179 -2 -2 -51 7
-108 21 -361 86 -934 160 -1528 198 -117 7 -215 16 -218 19 -12 12 11 30 70
57 88 40 221 69 431 93 81 10 327 5 427 -8z"/>
<path d="M3275 1847 c-88 -50 -84 -193 6 -239 96 -50 209 13 209 115 0 60 -23
103 -69 126 -52 27 -96 26 -146 -2z"/>
</g>
</svg>
